# This file uses centimeters as units for non-parametric coordinates.

mtllib Weapon.mtl
g default
v -1.239001 -0.134408 0.200205
v -0.413000 -0.265533 0.395521
v 0.413000 -0.265533 0.395521
v 1.239001 -0.196712 0.295217
v -1.239001 -0.044802 0.200205
v -0.413000 -0.088511 0.395521
v 0.413000 -0.088511 0.395521
v 1.239001 -0.088511 0.395521
v -1.239001 0.044803 0.200205
v -0.413000 0.088511 0.395521
v 0.413000 0.088511 0.395521
v 1.239001 0.088511 0.395521
v -1.239001 0.134408 0.200205
v -0.413000 0.265533 0.157978
v 0.413000 0.265533 0.157978
v 0.827082 0.265533 0.333803
v -1.239001 0.134408 0.066734
v -0.413000 0.265533 0.052659
v 0.413000 0.265533 0.052659
v 1.239001 0.265533 0.131840
v -1.239001 0.134408 -0.066736
v -0.413000 0.265533 -0.052660
v 0.413000 0.265533 -0.052660
v 1.239001 0.265533 -0.131842
v -1.239001 0.134408 -0.200207
v -0.413000 0.265533 -0.157980
v 0.413000 0.265533 -0.157980
v 0.827082 0.265533 -0.333804
v -1.239001 0.044803 -0.200207
v -0.413000 0.088511 -0.395523
v 0.413000 0.088511 -0.395523
v 1.239001 0.088511 -0.395523
v -1.239001 -0.044802 -0.200207
v -0.413000 -0.088511 -0.395523
v 0.413000 -0.088511 -0.395523
v 1.239001 -0.088511 -0.395523
v -1.239001 -0.134408 -0.200207
v -0.413000 -0.265533 -0.395523
v 0.413000 -0.265533 -0.395523
v 1.239001 -0.196712 -0.295219
v -1.239001 -0.134408 -0.066736
v -0.413000 -0.265533 -0.131842
v 0.413000 -0.265533 -0.131842
v 1.239001 -0.265533 -0.131842
v -1.239001 -0.134408 0.066735
v -0.413000 -0.265533 0.131840
v 0.413000 -0.265533 0.131840
v 1.239001 -0.265533 0.131840
v 1.239001 -0.088511 -0.131842
v 1.239001 -0.088511 0.131840
v 1.239001 0.088511 -0.131842
v 1.239001 0.088511 0.131840
v -1.239001 -0.044802 -0.066736
v -1.239001 -0.044802 0.066735
v -1.239001 0.044803 -0.066736
v -1.239001 0.044803 0.066734
v 0.210562 -0.125348 0.485577
v 1.321586 -0.125348 0.560134
v 1.321586 0.296249 0.624577
v -0.054157 0.246988 0.509943
v 1.321586 -0.125348 0.186711
v 1.321586 0.125348 0.365944
v -0.054157 0.246988 -0.509944
v 1.321586 0.296249 -0.624579
v 1.321586 -0.125348 -0.560135
v 0.210562 -0.125348 -0.485579
v 1.321586 -0.125348 -0.186712
v 1.321586 0.125348 -0.365945
v 2.425845 -0.086306 -0.385670
v 2.837597 -0.086306 -0.128557
v 2.425845 0.086306 -0.385670
v 2.837597 0.086306 -0.128557
v 2.837597 -0.086306 0.128556
v 2.425845 -0.086306 0.385669
v 2.837597 0.086306 0.128556
v 2.425845 0.086306 0.385669
v -1.239001 0.044803 -0.068194
v -1.239001 0.044803 0.068192
v -1.239001 0.134408 0.068192
v -1.239001 0.134408 -0.068194
v -0.413000 0.295217 0.052659
v 0.413000 0.381279 0.052659
v 0.413000 0.381279 -0.052660
v -0.413000 0.295217 -0.052660
v 1.239001 0.343678 0.131840
v 1.239001 0.343678 -0.131842
v 3.540345 0.132878 -0.065756
v 3.540345 0.132878 0.065754
v 3.540345 0.221167 -0.065756
v 3.540345 0.221167 0.065754
vt 0.091273 0.732385
vt 0.091273 0.612577
vt 0.085546 0.732384
vt 0.085546 0.612577
vt 0.091273 0.732385
vt 0.091273 0.612577
vt 0.085546 0.612577
vt 0.085546 0.732384
vt 0.764407 0.340223
vt 0.796918 0.288408
vt 0.848033 0.256597
vt 0.848033 0.340223
vt 0.764407 0.423849
vt 0.848033 0.423849
vt 0.931659 0.340223
vt 0.931659 0.423849
vt 0.796918 0.475664
vt 0.848033 0.507475
vt 0.788015 0.831196
vt 0.869558 0.831196
vt 0.869558 0.912739
vt 0.788015 0.912739
vt 0.850116 0.916465
vt 0.931659 0.916465
vt 0.931659 0.998008
vt 0.850116 0.998008
vt 0.562412 0.829450
vt 0.646038 0.829450
vt 0.626464 0.913077
vt 0.562412 0.913077
vt 0.742244 0.916803
vt 0.783952 0.916803
vt 0.783952 0.958511
vt 0.742244 0.958511
vt 0.653381 0.829450
vt 0.737007 0.829450
vt 0.737007 0.913077
vt 0.672955 0.913077
vt 0.063804 0.063936
vt 0.106134 0.063936
vt 0.106134 0.106267
vt 0.063804 0.106267
vt 0.001860 0.001992
vt 0.085486 0.001992
vt 0.148464 0.063936
vt 0.148464 0.106267
vt 0.106134 0.148597
vt 0.063804 0.148597
vt 0.001860 0.085618
vt 0.169112 0.001992
vt 0.190794 0.063936
vt 0.190794 0.106267
vt 0.148464 0.148597
vt 0.106134 0.190927
vt 0.063804 0.190927
vt 0.001860 0.169245
vt 0.252738 0.001992
vt 0.252738 0.085618
vt 0.190794 0.148597
vt 0.110598 0.252871
vt 0.077196 0.252871
vt 0.252738 0.169245
vt 0.190794 0.190927
vt 0.148464 0.190927
vt 0.144000 0.252871
vt 0.177402 0.252871
vt 0.144000 0.266894
vt 0.110598 0.266894
vt 0.802059 0.959719
vt 0.802059 0.916465
vt 0.844389 0.916465
vt 0.844389 0.959719
vt 0.137532 0.664784
vt 0.137532 0.748410
vt 0.120130 0.731008
vt 0.120130 0.612577
vt 0.079818 0.629979
vt 0.079818 0.713605
vt 0.005573 0.731007
vt 0.062416 0.612577
vt 0.826222 0.667473
vt 0.826222 0.583846
vt 0.924359 0.511201
vt 0.843624 0.593227
vt 0.114402 0.612577
vt 0.114402 0.696203
vt 0.097001 0.748410
vt 0.097001 0.629979
vt 0.833522 0.754825
vt 0.833522 0.671199
vt 0.850924 0.745444
vt 0.931659 0.827470
vt 0.001860 0.835762
vt 0.001860 0.752135
vt 0.019262 0.734733
vt 0.076105 0.853164
vt 0.796331 0.916465
vt 0.796331 0.958795
vt 0.795869 0.958795
vt 0.795869 0.916465
vt 0.789679 0.958795
vt 0.789679 0.916465
vt 0.790142 0.916465
vt 0.790142 0.958795
vt 0.744350 0.913077
vt 0.744350 0.829450
vt 0.781266 0.829450
vt 0.781266 0.913077
vt 0.152866 0.437872
vt 0.152866 0.354246
vt 0.186268 0.354246
vt 0.186268 0.437872
vt 0.077530 0.437872
vt 0.077530 0.354246
vt 0.097104 0.312323
vt 0.161156 0.270620
vt 0.026972 0.608851
vt 0.026972 0.525225
vt 0.060374 0.525225
vt 0.060374 0.608851
vt 0.001860 0.441598
vt 0.085486 0.441598
vt 0.093011 0.608851
vt 0.093011 0.525225
vt 0.126413 0.525225
vt 0.126413 0.608851
vt 0.118123 0.441598
vt 0.182175 0.483302
vt 0.201749 0.525225
vt 0.201749 0.608851
vt 0.669755 0.001992
vt 0.753382 0.001992
vt 0.753382 0.085618
vt 0.669755 0.085618
vt 0.837008 0.033803
vt 0.837008 0.085618
vt 0.753382 0.169245
vt 0.669755 0.169245
vt 0.837008 0.169245
vt 0.753382 0.252871
vt 0.669755 0.252871
vt 0.837008 0.221059
vt 0.082094 0.844123
vt 0.082094 0.760497
vt 0.134301 0.752136
vt 0.110655 0.864619
vt 0.192521 0.763948
vt 0.192521 0.847574
vt 0.163960 0.868069
vt 0.140315 0.755587
vt 0.809351 0.825724
vt 0.690921 0.825724
vt 0.746252 0.713927
vt 0.827795 0.672240
vt 0.506011 0.650832
vt 0.506011 0.568806
vt 0.659495 0.493519
vt 0.617809 0.575062
vt 0.561036 0.817982
vt 0.442605 0.817982
vt 0.424161 0.664498
vt 0.505704 0.706184
vt 0.666117 0.593227
vt 0.666117 0.511201
vt 0.777914 0.586971
vt 0.819601 0.668514
vt 0.758679 0.489590
vt 0.675053 0.489590
vt 0.696012 0.256597
vt 0.737720 0.256597
vt 0.579972 0.489793
vt 0.496345 0.489793
vt 0.517304 0.256799
vt 0.559013 0.256799
vt 0.191996 0.270620
vt 0.275622 0.270620
vt 0.275622 0.354246
vt 0.191996 0.354246
vt 0.359248 0.303131
vt 0.359248 0.354246
vt 0.275622 0.437872
vt 0.191996 0.437872
vt 0.258575 0.226273
vt 0.258575 0.113790
vt 0.457740 0.113790
vt 0.434468 0.253073
vt 0.277018 0.001992
vt 0.358561 0.001992
vt 0.198535 0.755587
vt 0.282161 0.776235
vt 0.282161 0.859861
vt 0.198535 0.797917
vt 0.380473 0.821708
vt 0.464100 0.821708
vt 0.422396 0.905335
vt 0.380473 0.905335
vt 0.289504 0.883652
vt 0.373130 0.821708
vt 0.373130 0.905335
vt 0.289504 0.925983
vt 0.471443 0.821708
vt 0.513365 0.821708
vt 0.555069 0.905335
vt 0.471443 0.905335
vt 0.207632 0.441598
vt 0.291258 0.441598
vt 0.291258 0.525225
vt 0.207632 0.525225
vt 0.291258 0.608851
vt 0.207632 0.608851
vt 0.374884 0.525225
vt 0.374884 0.576340
vt 0.487436 0.253073
vt 0.464165 0.113790
vt 0.663330 0.113790
vt 0.663330 0.226273
vt 0.563343 0.001992
vt 0.644886 0.001992
vt 0.685193 0.825724
vt 0.566763 0.825724
vt 0.585207 0.672240
vt 0.666750 0.672240
vt 0.418434 0.817982
vt 0.300003 0.817982
vt 0.318447 0.664498
vt 0.399990 0.664498
vt 0.382293 0.660772
vt 0.382293 0.577145
vt 0.436972 0.577145
vt 0.396315 0.660772
vt 0.382293 0.493519
vt 0.419209 0.493519
vt 0.498831 0.577145
vt 0.498831 0.660772
vt 0.484808 0.660772
vt 0.444152 0.577145
vt 0.498831 0.493519
vt 0.461915 0.493519
vt 0.669326 0.489793
vt 0.585699 0.489793
vt 0.606658 0.256799
vt 0.648367 0.256799
vt 0.490618 0.489793
vt 0.406991 0.489793
vt 0.427951 0.256799
vt 0.469659 0.256799
vt 0.294276 0.620938
vt 0.294276 0.704564
vt 0.257987 0.751861
vt 0.221631 0.612577
vt 0.294276 0.704564
vt 0.265715 0.725060
vt 0.401264 0.274201
vt 0.401264 0.357828
vt 0.364976 0.432693
vt 0.372703 0.256799
vt 0.143259 0.704564
vt 0.143259 0.620938
vt 0.215904 0.612577
vt 0.179547 0.751860
vn -0.230114 0.000000 0.973164
vn -0.078126 0.000000 0.996944
vn -0.101058 0.000000 0.994881
vn -0.230114 0.000000 0.973164
vn 0.028765 -0.134223 0.990534
vn 0.021527 -0.100445 0.994710
vn 0.070920 -0.330918 0.940991
vn 0.070920 -0.330918 0.940991
vn -0.071919 0.499757 0.863175
vn -0.196229 0.356213 0.913568
vn -0.032076 0.558328 0.829000
vn -0.072515 -0.134721 0.988227
vn 0.021959 -0.124755 0.991945
vn 0.001287 -0.127034 0.991898
vn -0.072515 -0.134721 0.988227
vn -0.039375 0.766007 0.641625
vn -0.138251 0.658821 0.739487
vn -0.030543 0.747660 0.663379
vn -0.116431 0.558656 0.821186
vn -0.116431 0.558656 0.821186
vn -0.156784 0.987633 0.000000
vn -0.087100 0.996200 0.000000
vn -0.109498 0.993987 0.000000
vn -0.156784 0.987633 0.000000
vn 0.000000 1.000000 0.000000
vn 0.000000 1.000000 0.000000
vn 0.000000 1.000000 0.000000
vn 0.000000 1.000000 0.000000
vn -0.109498 0.993987 0.000000
vn -0.156784 0.987633 0.000000
vn -0.103631 0.994616 0.000000
vn -0.003237 0.999995 0.000000
vn -0.003237 0.999995 0.000000
vn -0.103631 0.994616 0.000000
vn 0.045475 0.998966 0.000000
vn 0.045475 0.998966 0.000000
vn -0.087100 0.996199 0.000000
vn -0.156784 0.987633 0.000000
vn 0.000000 1.000000 -0.000000
vn 0.000000 1.000000 -0.000000
vn 0.000000 1.000000 -0.000000
vn 0.000000 1.000000 -0.000000
vn -0.138251 0.658822 -0.739487
vn -0.039375 0.766008 -0.641625
vn -0.071918 0.499757 -0.863175
vn -0.196229 0.356213 -0.913568
vn -0.030543 0.747660 -0.663379
vn -0.032076 0.558329 -0.828999
vn -0.116431 0.558657 -0.821186
vn -0.116431 0.558657 -0.821186
vn -0.101058 0.000000 -0.994881
vn -0.230114 0.000000 -0.973164
vn 0.021527 -0.100446 -0.994710
vn -0.072515 -0.134721 -0.988227
vn 0.001286 -0.127034 -0.991898
vn 0.021959 -0.124755 -0.991945
vn -0.072515 -0.134721 -0.988227
vn -0.078126 0.000000 -0.996944
vn -0.230114 0.000000 -0.973164
vn 0.028766 -0.134223 -0.990534
vn 0.070920 -0.330919 -0.940990
vn 0.070920 -0.330919 -0.940990
vn -0.156784 -0.987633 0.000000
vn -0.052538 -0.998619 0.000000
vn -0.068036 -0.997683 0.000000
vn -0.156784 -0.987633 0.000000
vn 0.019920 -0.997852 -0.062402
vn 0.010928 -0.999354 -0.034232
vn 0.050723 -0.985992 -0.158894
vn 0.022953 -0.997148 -0.071902
vn -0.068036 -0.997683 0.000000
vn -0.156784 -0.987633 0.000000
vn 0.010928 -0.999354 0.034232
vn 0.022953 -0.997148 0.071902
vn -0.052538 -0.998619 0.000000
vn -0.156783 -0.987633 0.000000
vn 0.019920 -0.997852 0.062402
vn 0.050723 -0.985992 0.158893
vn 1.000000 0.000000 0.000000
vn 1.000000 0.000000 0.000000
vn 1.000000 0.000000 0.000000
vn 1.000000 0.000000 0.000000
vn 1.000000 0.000000 0.000000
vn 1.000000 0.000000 0.000000
vn 1.000000 0.000000 0.000000
vn 1.000000 0.000000 0.000000
vn 0.529656 0.000000 -0.848213
vn 0.529656 0.000000 -0.848213
vn 0.529656 0.000000 -0.848213
vn 0.529656 0.000000 -0.848213
vn 1.000000 0.000000 0.000000
vn 1.000000 0.000000 0.000000
vn 0.529655 0.000000 0.848213
vn 0.529655 0.000000 0.848213
vn 0.529655 0.000000 0.848213
vn 0.529655 0.000000 0.848213
vn 0.533090 0.702442 -0.471584
vn 0.533090 0.702442 -0.471584
vn 0.533090 0.702442 -0.471584
vn 0.533090 0.702442 -0.471584
vn 1.000000 0.000000 0.000000
vn 1.000000 0.000000 0.000000
vn 1.000000 0.000000 0.000000
vn 1.000000 0.000000 0.000000
vn 0.533090 0.702442 0.471583
vn 0.533090 0.702442 0.471583
vn 0.533090 0.702442 0.471583
vn 0.533090 0.702442 0.471583
vn -1.000000 0.000000 0.000000
vn -1.000000 0.000000 0.000000
vn -1.000000 0.000000 0.000000
vn -1.000000 0.000000 0.000000
vn -1.000000 0.000000 0.000000
vn -1.000000 0.000000 0.000000
vn -1.000000 0.000000 0.000000
vn -1.000000 0.000000 0.000000
vn -1.000000 0.000000 0.000000
vn -1.000000 0.000000 0.000000
vn -1.000000 0.000000 0.000000
vn -1.000000 0.000000 0.000000
vn -1.000000 0.000000 0.000000
vn -1.000000 0.000000 0.000000
vn -1.000000 0.000000 0.000000
vn -1.000000 0.000000 0.000000
vn -1.000000 0.000000 0.000000
vn -1.000000 0.000000 0.000000
vn -1.000000 0.000000 0.000000
vn -1.000000 0.000000 0.000000
vn 0.010520 -0.961869 -0.273309
vn 0.010520 -0.961869 -0.273309
vn 0.010520 -0.961869 -0.273309
vn 0.010520 -0.961869 -0.273309
vn 0.021794 0.696019 -0.717692
vn 0.021794 0.696019 -0.717692
vn 0.021794 0.696019 -0.717692
vn 0.021794 0.696019 -0.717692
vn -0.308046 -0.106508 -0.945391
vn -0.308046 -0.106508 -0.945391
vn -0.308046 -0.106508 -0.945391
vn -0.308046 -0.106508 -0.945391
vn -0.407359 -0.913268 0.000000
vn -0.407359 -0.913268 0.000000
vn -0.008695 -0.999783 0.018909
vn 0.021594 -0.999562 0.020215
vn 0.850007 0.203589 -0.485840
vn 0.850007 0.203589 -0.485839
vn 0.850007 0.203589 -0.485840
vn 0.850007 0.203589 -0.485840
vn -0.471945 0.837915 -0.274165
vn -0.471945 0.837915 -0.274165
vn 0.029216 0.957587 -0.286659
vn -0.012669 0.957378 -0.288560
vn 0.021795 0.696018 0.717693
vn 0.021795 0.696018 0.717693
vn 0.021795 0.696018 0.717693
vn 0.021795 0.696018 0.717693
vn 0.010520 -0.961868 0.273310
vn 0.010520 -0.961868 0.273310
vn 0.010520 -0.961868 0.273310
vn 0.010520 -0.961868 0.273310
vn -0.308045 -0.106508 0.945391
vn -0.308045 -0.106508 0.945391
vn -0.308045 -0.106508 0.945391
vn -0.308045 -0.106508 0.945391
vn -0.407360 -0.913268 0.000000
vn -0.407360 -0.913268 0.000000
vn 0.021594 -0.999562 -0.020215
vn -0.008695 -0.999783 -0.018909
vn -0.471946 0.837915 0.274165
vn -0.471946 0.837915 0.274165
vn -0.012669 0.957378 0.288560
vn 0.029216 0.957587 0.286659
vn 0.850006 0.203589 0.485840
vn 0.850006 0.203589 0.485840
vn 0.850006 0.203589 0.485840
vn 0.850006 0.203589 0.485841
vn 0.031611 -0.999287 -0.020643
vn 0.031611 -0.999287 -0.020643
vn 0.174995 -0.106157 -0.978830
vn 0.174995 -0.106157 -0.978830
vn 0.038961 0.957394 0.286144
vn 0.038961 0.957394 0.286144
vn -0.089400 0.388339 0.917170
vn -0.089400 0.388339 0.917170
vn -0.089400 0.388339 0.917170
vn -0.089400 0.388339 0.917170
vn 0.031611 -0.999287 0.020643
vn 0.031611 -0.999287 0.020643
vn -0.089400 0.388339 -0.917170
vn -0.089400 0.388339 -0.917170
vn -0.089400 0.388339 -0.917170
vn -0.089400 0.388339 -0.917170
vn 0.038961 0.957394 -0.286144
vn 0.038961 0.957394 -0.286144
vn 0.174995 -0.106157 0.978830
vn 0.174995 -0.106157 0.978830
vn 0.000000 0.000000 0.000000
vn 0.000000 0.000000 0.000000
vn 0.000000 0.000000 0.000000
vn 0.000000 0.000000 0.000000
vn 1.000000 0.000000 0.000000
vn 1.000000 0.000000 0.000000
vn 1.000000 0.000000 0.000000
vn 1.000000 0.000000 0.000000
vn 0.000000 0.000000 0.000000
vn 0.000000 0.000000 0.000000
vn 0.000000 0.000000 0.000000
vn 0.000000 0.000000 0.000000
vn 1.000000 0.000000 0.000000
vn 1.000000 0.000000 0.000000
vn 1.000000 0.000000 0.000000
vn 1.000000 0.000000 0.000000
vn -0.000000 0.000000 1.000000
vn -0.054694 0.000000 0.998503
vn -0.059355 0.000000 0.998237
vn -0.000000 0.000000 1.000000
vn -0.054694 0.000000 -0.998503
vn -0.000000 0.000000 -1.000000
vn -0.000000 0.000000 -1.000000
vn -0.059355 0.000000 -0.998237
vn -1.000000 0.000000 0.000000
vn -1.000000 0.000000 0.000000
vn -1.000000 0.000000 0.000000
vn -1.000000 0.000000 0.000000
vn -0.095424 0.000000 0.995437
vn -0.095424 0.000000 0.995437
vn 1.000000 -0.000001 0.000000
vn 1.000000 -0.000001 0.000000
vn 1.000000 -0.000001 0.000000
vn 1.000000 -0.000001 0.000000
vn -0.095424 0.000000 -0.995437
vn -0.095424 0.000000 -0.995437
vn 0.019275 -0.999814 0.000000
vn 0.019275 -0.999814 0.000000
vn 0.019275 -0.999814 0.000000
vn 0.019275 -0.999814 0.000000
vn 0.028704 -0.000000 -0.999588
vn 0.028704 -0.000000 -0.999588
vn 0.028704 -0.000000 -0.999588
vn 0.028704 -0.000000 -0.999588
vn 0.019275 0.999814 0.000000
vn 0.019275 0.999814 0.000000
vn 0.019275 0.999814 0.000000
vn 0.019275 0.999814 0.000000
vn 0.028704 -0.000000 0.999588
vn 0.028704 -0.000000 0.999588
vn 0.028704 -0.000000 0.999588
vn 0.028704 -0.000000 0.999588
s 1
g pCube3
usemtl lambert2SG
f 1/51/1 2/57/2 6/58/3 5/52/4
f 2/175/2 3/176/5 7/177/6 6/178/3
f 3/176/5 4/179/7 8/180/8 7/177/6
f 5/52/4 6/58/3 10/62/9 9/59/10
f 6/178/3 7/177/6 11/181/11 10/182/9
s 2
f 57/183/12 58/184/13 59/185/14 60/186/15
s 1
f 9/189/10 10/190/9 14/191/16 13/192/17
f 10/113/9 11/114/11 15/110/18 14/109/16
f 11/193/11 12/194/19 16/195/20 15/196/18
s 3
f 13/63/21 14/66/22 18/65/23 17/64/24
f 14/109/22 15/110/25 19/111/26 18/112/23
f 15/110/25 16/115/27 20/116/28 19/111/26
f 17/64/24 18/65/23 22/60/29 21/54/30
s 4
f 81/117/31 82/118/32 83/119/33 84/120/34
f 82/118/32 85/121/35 86/122/36 83/119/33
s 3
f 21/54/30 22/60/29 26/61/37 25/55/38
f 22/123/29 23/124/39 27/125/40 26/126/37
f 23/124/39 24/127/41 28/128/42 27/125/40
s 5
f 25/197/43 26/198/44 30/199/45 29/200/46
f 26/126/44 27/125/47 31/129/48 30/130/45
f 27/201/47 28/202/49 32/203/50 31/204/48
f 29/48/46 30/56/45 34/49/51 33/42/52
f 30/205/45 31/206/48 35/207/53 34/208/51
s 6
f 63/213/54 64/214/55 65/215/56 66/216/57
s 5
f 33/42/52 34/49/51 38/43/58 37/39/59
f 34/208/51 35/207/53 39/209/60 38/210/58
f 35/207/53 36/211/61 40/212/62 39/209/60
s 7
f 37/39/63 38/43/64 42/44/65 41/40/66
f 38/131/64 39/132/67 43/133/68 42/134/65
f 39/132/67 40/135/69 44/136/70 43/133/68
f 41/40/66 42/44/65 46/50/71 45/45/72
f 42/134/65 43/133/68 47/137/73 46/138/71
f 43/133/68 44/136/70 48/139/74 47/137/73
f 45/45/72 46/50/71 2/57/75 1/51/76
f 46/138/71 47/137/73 3/140/77 2/141/75
f 47/137/73 48/139/74 4/142/78 3/140/77
s 8
f 44/9/79 40/10/80 36/11/81 49/12/82
f 48/13/83 44/9/79 49/12/82 50/14/84
f 4/17/85 48/13/83 50/14/84 8/18/86
s off
f 70/19/87 69/20/88 71/21/89 72/22/90
s 8
f 50/14/84 49/12/82 51/15/91 52/16/92
s off
f 74/23/93 73/24/94 75/25/95 76/26/96
f 51/27/97 32/28/98 28/29/99 24/30/100
f 88/31/101 87/32/102 89/33/103 90/34/104
f 12/35/105 52/36/106 20/37/107 16/38/108
s 9
f 37/39/109 41/40/110 53/41/111 33/42/112
f 41/40/110 45/45/113 54/46/114 53/41/111
f 45/45/113 1/51/115 5/52/116 54/46/114
f 33/42/112 53/41/111 55/47/117 29/48/118
f 53/41/111 54/46/114 56/53/119 55/47/117
f 54/46/114 5/52/116 9/59/120 56/53/119
f 29/48/118 55/47/117 21/54/121 25/55/122
s off
f 77/69/123 78/70/124 79/71/125 80/72/126
s 9
f 56/53/119 9/59/120 13/63/127 17/64/128
s off
f 7/143/129 8/144/130 58/145/131 57/146/132
f 12/247/133 11/248/134 60/249/135 59/250/136
f 11/248/137 7/251/138 57/252/139 60/249/140
s 10
f 8/73/141 50/74/142 61/75/143 58/76/144
s off
f 50/77/145 52/78/146 62/79/147 61/80/148
s 11
f 52/81/149 12/82/150 59/83/151 62/84/152
s off
f 31/257/153 32/258/154 64/259/155 63/260/156
f 36/147/157 35/148/158 66/149/159 65/150/160
f 35/253/161 31/254/162 63/255/163 66/256/164
s 12
f 49/85/165 36/86/166 65/87/167 67/88/168
s 13
f 32/89/169 51/90/170 68/91/171 64/92/172
s off
f 51/93/173 49/94/174 67/95/175 68/96/176
s 12
f 67/151/168 65/152/167 69/153/177 70/154/178
s 6
f 65/215/56 64/214/55 71/217/179 69/218/180
s 13
f 64/155/172 68/156/171 72/157/181 71/158/182
s off
f 68/219/183 67/220/184 70/221/185 72/222/186
s 10
f 58/159/144 61/160/143 73/161/187 74/162/188
s off
f 61/223/189 62/224/190 75/225/191 73/226/192
s 11
f 62/163/152 59/164/151 76/165/193 75/166/194
s 2
f 59/185/14 58/184/13 74/187/195 76/188/196
s off
f 55/1/197 56/2/198 78/6/199 77/5/200
f 56/97/201 17/98/202 79/99/203 78/100/204
f 17/4/205 21/3/206 80/8/207 79/7/208
f 21/101/209 55/102/210 77/103/211 80/104/212
s 14
f 18/227/213 19/228/214 82/229/215 81/230/216
s 15
f 23/233/217 22/234/218 84/235/219 83/236/220
s off
f 22/60/221 18/65/222 81/67/223 84/68/224
s 14
f 19/228/214 20/231/225 85/232/226 82/229/215
s off
f 20/105/227 24/106/228 86/107/229 85/108/230
s 15
f 24/237/231 23/233/217 83/236/220 86/238/232
s off
f 52/167/233 51/168/234 87/169/235 88/170/236
f 51/239/237 24/240/238 89/241/239 87/242/240
f 24/171/241 20/172/242 90/173/243 89/174/244
f 20/243/245 52/244/246 88/245/247 90/246/248
